PathFileType  4	(X/Y/Z) C:\Users\antoi\Documents\MyRepositories\mobilecap\ResultsAnalysis
DataRate	CameraRate	NumFrames	NumMarkers	Units	OrigDataRate	OrigDataStartFrame	OrigNumFrames
100.0	100.0	6	51	mm	100.0	530	1413
Frame#	Time	r_knee			r_shank_antsup			r_ankle			r_calc			r_5meta			r_toe			L_knee			L_shank_antsup			L_ankle			L_calc			L_5meta			L_toe			r_sh2			r_sh3			r_sh4			L_sh2			L_sh3			r_thigh1			r_thigh2			r_thigh3			r_thigh4			r_thigh5			L_thigh1			L_thigh2			L_thigh3			L_thigh4			r.ASIS			r.PSIS			L.ASIS			L.PSIS			C7			R_Shoulder			L_Shoulder			R_Sternum			L_Sternum			R_humerus			R_elbow_med			R_elbow_lat			R_forearm			R_wrist_radius			R_wrist_ulna			L_humerus			L_elbow_med			L_elbow_lat			L_forearm			L_wrist_radius			L_wrist_ulna			R_HJC			L_HJC			R_HJC_reg			L_HJC_reg			
		X1	Y1	Z1	X2	Y2	Z2	X3	Y3	Z3	X4	Y4	Z4	X5	Y5	Z5	X6	Y6	Z6	X7	Y7	Z7	X8	Y8	Z8	X9	Y9	Z9	X10	Y10	Z10	X11	Y11	Z11	X12	Y12	Z12	X13	Y13	Z13	X14	Y14	Z14	X15	Y15	Z15	X16	Y16	Z16	X17	Y17	Z17	X18	Y18	Z18	X19	Y19	Z19	X20	Y20	Z20	X21	Y21	Z21	X22	Y22	Z22	X23	Y23	Z23	X24	Y24	Z24	X25	Y25	Z25	X26	Y26	Z26	X27	Y27	Z27	X28	Y28	Z28	X29	Y29	Z29	X30	Y30	Z30	X31	Y31	Z31	X32	Y32	Z32	X33	Y33	Z33	X34	Y34	Z34	X35	Y35	Z35	X36	Y36	Z36	X37	Y37	Z37	X38	Y38	Z38	X39	Y39	Z39	X40	Y40	Z40	X41	Y41	Z41	X42	Y42	Z42	X43	Y43	Z43	X44	Y44	Z44	X45	Y45	Z45	X46	Y46	Z46	X47	Y47	Z47	X48	Y48	Z48	X49	Y49	Z49	X50	Y50	Z50	X51	Y51	Z51	

530	5.29000000	-157.90342	466.27810	-444.23999	-99.14666	397.08000	-444.27489	-259.09655	96.32893	-448.53194	-329.98335	62.50442	-484.89312	-163.09736	45.93720	-403.28279	-112.14626	73.36301	-454.99933	-155.89833	456.14973	-964.10301	-109.90317	369.24628	-978.69758	-260.81603	98.26194	-936.62131	-328.78290	62.87412	-891.94917	-162.77515	43.10969	-991.55916	-116.41938	64.78819	-939.17115	-155.39631	294.83782	-426.18189	-171.23083	430.61828	-425.81455	-221.38868	330.62537	-421.07037	-193.64544	402.25787	-972.90579	-230.46124	285.35827	-973.98890	-431.72656	601.06891	-515.36442	-330.62442	567.78202	-487.11064	-334.40044	508.72634	-452.68264	-474.77722	499.03663	-491.78027	-365.01097	463.55568	-467.05970	-410.43213	551.17726	-951.00296	-275.75202	530.45921	-961.10967	-429.36384	440.18408	-915.70523	-290.31769	424.10151	-938.64568	-407.29517	577.04006	-590.04148	-553.24229	680.89938	-673.87887	-398.27590	560.57602	-831.12824	-555.77360	686.45928	-762.04429	-253.70768	974.81046	-713.48858	-183.72277	913.90026	-556.19167	-181.37413	928.42270	-872.59708	-149.59526	864.41780	-689.33001	-146.91330	862.99555	-732.27804	-208.81675	825.16655	-459.13464	-281.55414	619.45584	-421.23934	-260.24171	661.82243	-356.78248	-129.38929	667.84803	-403.83522	-15.40891	668.89848	-457.04822	-4.25613	637.41685	-445.40205	-201.36371	847.60755	-960.19440	-288.12079	632.03820	-1002.72956	-268.42573	687.73183	-1066.18208	-167.62727	694.61393	-1025.35123	-27.45340	687.01449	-980.78824	-22.06833	658.54435	-998.80630	-504.55415	531.59408	-609.31393	-499.52085	525.97135	-815.64681	-493.32350	525.91235	-623.38255	-497.89464	535.95299	-782.60010	
531	5.30000000	-159.56897	466.45813	-444.35704	-100.37167	397.60518	-444.48977	-259.19355	96.24660	-448.56759	-330.01678	62.49252	-484.91894	-163.09772	46.02544	-403.40789	-112.16137	73.50240	-455.00211	-157.92690	456.24060	-964.38702	-111.30355	369.78490	-978.80808	-260.94204	98.22100	-936.65422	-328.77710	62.87904	-891.93162	-162.78693	43.13044	-991.52601	-116.44307	64.87480	-939.20893	-156.11252	296.21146	-425.46414	-172.55531	430.87860	-425.81397	-222.27185	330.75846	-421.00913	-195.12526	402.53618	-973.20093	-231.35987	285.26648	-974.25395	-435.46363	597.46180	-515.36517	-333.83591	565.88410	-487.32286	-336.47307	506.45244	-453.03696	-476.93314	494.94138	-491.32958	-366.74324	461.19204	-466.61928	-413.19150	546.75800	-949.20955	-278.74792	528.58337	-961.48563	-430.90004	436.14630	-915.61589	-291.67720	422.20215	-938.82730	-410.47180	573.57721	-590.22781	-558.03029	674.89537	-674.15250	-401.28637	557.04904	-831.46911	-560.74543	680.32252	-762.25130	-262.11246	973.21876	-713.71743	-190.46642	912.04661	-554.83261	-189.08735	927.73649	-872.51843	-156.90428	863.79333	-689.45937	-154.18214	862.50403	-732.45981	-216.10502	824.05504	-459.33965	-287.20068	617.79125	-421.46853	-266.13509	660.10657	-356.91597	-135.11280	666.68013	-403.86813	-20.97687	668.03484	-456.73527	-9.73550	636.59110	-445.10241	-207.46346	846.68469	-960.16218	-290.93465	630.13593	-1003.44752	-271.49438	685.96619	-1066.85455	-170.91667	693.65541	-1025.31031	-30.90063	687.51059	-980.13592	-25.13721	658.99986	-998.16337	-506.91938	526.48380	-609.47437	-501.91757	520.77583	-815.80547	-495.62136	520.98738	-623.45257	-500.53189	530.80245	-782.78262	
532	5.31000000	-161.21509	466.59579	-444.56448	-101.62223	398.10134	-444.88649	-259.23793	96.26497	-448.53493	-330.01692	62.47416	-484.84872	-163.09404	46.05678	-403.53724	-112.23178	73.58484	-455.07608	-159.89352	456.39652	-964.70496	-112.72758	370.23947	-978.79948	-261.06002	98.11449	-936.60793	-328.77276	62.88080	-891.92685	-162.80071	43.10233	-991.44845	-116.46604	64.97129	-939.25133	-156.56658	297.19647	-425.35396	-173.89035	431.23458	-426.04769	-223.34480	330.96314	-421.52571	-196.62137	402.82378	-973.52365	-232.44187	285.01070	-974.20328	-439.34906	594.47795	-514.77070	-336.52721	563.53105	-487.87399	-338.52559	503.93106	-453.47198	-478.77371	490.43055	-491.72812	-368.30620	458.53081	-466.54609	-416.04301	542.87315	-948.47795	-281.76044	526.84307	-961.59352	-432.52465	432.05957	-915.54134	-293.08444	420.51990	-939.19867	-413.69038	570.38669	-590.35006	-562.87200	669.07356	-674.34661	-404.43814	553.69712	-831.74553	-565.80823	674.32675	-762.36978	-270.81504	971.77576	-713.99401	-198.06195	910.81828	-554.19564	-197.27827	927.24343	-872.55181	-164.63961	863.47855	-689.90620	-161.68232	862.19838	-732.73952	-223.58289	823.24598	-459.42924	-292.81844	616.43662	-421.76900	-272.00903	658.41840	-357.33161	-140.83290	665.76373	-403.82277	-26.66536	667.57917	-456.38523	-15.30745	636.02822	-445.00789	-213.88969	845.98235	-960.26677	-294.03188	628.29595	-1004.04795	-274.67406	684.31390	-1067.43492	-174.42552	692.98574	-1025.31722	-34.55743	688.35458	-979.55393	-28.43403	659.82330	-997.56628	-509.29783	521.63296	-609.51053	-504.41274	515.75191	-815.83963	-497.93889	516.31710	-623.39852	-503.25778	525.83267	-782.84404	
533	5.32000000	-162.82870	466.64101	-445.02011	-102.89950	398.63769	-445.38661	-259.25234	96.33591	-448.44119	-330.02424	62.45246	-484.79736	-163.08940	46.03379	-403.70015	-112.38632	73.56408	-455.20421	-161.87396	456.50107	-964.81907	-114.18990	370.70917	-978.87542	-261.17399	98.01041	-936.55942	-328.78400	62.86157	-891.93151	-162.81915	43.12624	-991.46707	-116.49555	65.09604	-939.32036	-157.25482	297.51939	-425.86310	-175.25148	431.48453	-426.62300	-224.25942	330.90225	-422.05908	-198.18959	403.11323	-973.95626	-233.61545	284.77426	-973.99617	-442.77715	590.82451	-514.71371	-339.44599	560.98946	-488.30063	-340.55292	501.43562	-453.83385	-480.81305	486.19635	-491.24388	-369.64387	455.59289	-466.90602	-419.37244	539.67006	-949.27316	-284.67391	525.19677	-961.61132	-434.16864	428.05446	-915.44312	-294.47489	418.83959	-939.48244	-416.97695	567.45303	-590.33948	-567.82316	663.40973	-674.33408	-407.61081	550.80050	-832.00795	-570.96798	668.55232	-762.42682	-279.89619	970.50201	-714.24629	-206.63220	910.58029	-554.45998	-205.96070	926.75680	-872.45724	-172.53353	863.50939	-690.27796	-169.49933	862.18856	-733.06159	-231.22887	822.57569	-459.53118	-298.41591	615.10573	-422.13854	-277.97943	657.21088	-357.63106	-146.64751	665.06703	-403.74558	-32.45083	667.44566	-456.06245	-20.99282	635.81122	-445.01397	-220.66970	845.50510	-960.42439	-297.06880	626.42138	-1004.86000	-278.03382	682.78503	-1067.90368	-178.19994	692.66978	-1025.48148	-38.47113	689.56297	-979.13388	-31.99910	660.99118	-996.94471	-511.66975	516.98243	-609.52266	-506.86589	511.09409	-815.85355	-500.26778	511.84710	-623.29022	-505.96610	521.16575	-782.91582	
534	5.33000000	-164.44340	466.74893	-445.65874	-104.17248	399.25632	-446.01527	-259.33258	96.36056	-448.44536	-330.05598	62.45761	-484.82893	-163.07405	46.09860	-403.80736	-112.50199	73.54024	-455.39399	-163.86280	456.67757	-964.94376	-115.70239	371.28642	-979.01550	-261.29534	97.93057	-936.54162	-328.81264	62.82280	-891.95353	-162.84963	43.15862	-991.48738	-116.53957	65.23297	-939.37991	-158.23444	297.79779	-426.37140	-176.67130	431.69699	-427.39788	-224.98896	330.56834	-422.20628	-199.86031	403.39998	-974.26738	-234.72503	284.77177	-973.92452	-445.78085	586.23524	-515.64485	-342.59653	558.45339	-488.60971	-342.52297	499.16917	-454.24040	-483.23635	483.03228	-489.54946	-370.90796	452.73445	-467.28050	-422.59057	536.26488	-949.56236	-287.51483	523.58613	-961.66682	-435.70465	424.20381	-915.20405	-295.82539	417.01656	-939.54601	-420.37203	564.69732	-590.23858	-572.89458	657.76742	-674.26543	-410.59105	548.36471	-832.16800	-576.14400	662.88371	-762.46640	-289.34351	969.47212	-714.44893	-215.52364	910.70824	-554.76262	-214.85877	926.47735	-872.35602	-180.61606	863.81155	-690.46190	-177.66333	862.51107	-733.32957	-239.08045	822.02406	-459.69594	-304.05625	613.79419	-422.20116	-284.04006	656.47747	-357.83515	-152.61702	664.66331	-403.64708	-38.30313	667.56684	-455.79441	-26.76335	636.02080	-444.81078	-227.77844	845.22743	-960.55320	-300.16480	624.79808	-1005.89766	-281.76491	681.54391	-1068.41363	-182.23740	692.64770	-1025.65678	-42.61490	691.03251	-978.76501	-35.80982	662.45241	-996.32812	-514.02384	512.40968	-609.59830	-509.05641	506.74756	-815.93156	-502.56399	507.49792	-623.25222	-508.45056	516.76710	-783.04240	
535	5.34000000	-166.04472	467.00002	-446.34538	-105.42197	399.92799	-446.77797	-259.46258	96.33736	-448.58397	-330.09434	62.46625	-484.89073	-163.04573	46.27232	-403.86902	-112.50183	73.62809	-455.64561	-165.83757	456.98538	-965.22323	-117.24323	371.99051	-979.10271	-261.43299	97.85453	-936.53634	-328.85544	62.77640	-891.98545	-162.91178	43.16563	-991.40685	-116.60063	65.37039	-939.38080	-159.25771	298.25681	-426.74524	-178.12903	432.02941	-428.14381	-225.85275	330.43566	-422.30192	-201.59217	403.59113	-974.12740	-235.71167	285.00109	-974.08342	-448.84505	581.72755	-516.59195	-345.43493	556.07260	-489.10745	-344.42544	496.91551	-454.91798	-485.37740	479.61046	-488.79353	-372.18005	449.95279	-467.63524	-425.44806	532.55138	-948.95344	-290.35908	522.20685	-961.86613	-437.11387	420.55410	-915.08105	-297.13669	415.12512	-939.40542	-424.06097	562.13443	-590.04248	-578.15646	652.13540	-674.36514	-413.50869	546.01355	-832.08004	-581.38143	657.17024	-762.55290	-299.13029	968.68225	-714.62465	-224.64810	910.84095	-554.95759	-223.95100	926.69168	-872.62993	-189.13037	864.43053	-690.64156	-186.17132	863.08866	-733.56553	-247.18101	821.79095	-459.80048	-309.77248	612.67281	-421.99155	-290.12269	655.91258	-358.08167	-158.66280	664.59496	-403.54184	-44.20456	667.96450	-455.61015	-32.59389	636.54046	-444.39782	-235.19051	845.18235	-960.81038	-303.72701	623.50469	-1006.78120	-285.86581	680.61794	-1068.99002	-186.51992	692.83854	-1025.83210	-46.90802	692.50673	-978.30496	-39.86077	664.15698	-995.85301	-516.56968	507.97290	-609.60985	-511.14330	502.43479	-815.93568	-505.01654	503.31934	-623.17739	-510.86393	512.44725	-783.06093	
